<svg id="Tire" xmlns="http://www.w3.org/2000/svg" viewBox="0 0 154 154"><defs><style>.cls-1{fill:#fff;}</style></defs><title>flattire</title><path d="M569,211a77,77,0,1,0,77,77A77,77,0,0,0,569,211Zm24.83,115.71.08.51-.46-.27a45.94,45.94,0,0,1-49.38-.3l-1,.57.17-1.09A46,46,0,0,1,568.49,242H569a46,46,0,0,1,24.83,84.71Z" transform="translate(-492 -211)"/><path class="cls-1" d="M539,288.5c0-.52,0-1.05,0-1.56l-11.66-12.39,16.73-2.65a29.57,29.57,0,0,1,16.16-11.73L568.49,242a46,46,0,0,0-25.23,84.12l2.89-18.39A29.36,29.36,0,0,1,539,288.5Z" transform="translate(-492 -211)"/><path class="cls-1" d="M568.5,318a29.63,29.63,0,0,1-7.59-1l-16.84,9.64a45.94,45.94,0,0,0,49.38.3L576.09,317A29.63,29.63,0,0,1,568.5,318Z" transform="translate(-492 -211)"/><path class="cls-1" d="M569,242h-.49l8.22,18.16a29.57,29.57,0,0,1,16.16,11.73l16.73,2.65L598,286.94c0,.51,0,1,0,1.56a29.36,29.36,0,0,1-7.15,19.24l3,19A46,46,0,0,0,569,242Z" transform="translate(-492 -211)"/><path d="M598,288.5c0-.52,0-1.05,0-1.56l11.66-12.39-16.73-2.65a29.57,29.57,0,0,0-16.16-11.73L568.51,242h0l-8.22,18.16a29.57,29.57,0,0,0-16.16,11.73l-16.73,2.65L539,286.94c0,.51,0,1,0,1.56a29.36,29.36,0,0,0,7.15,19.24l-2.89,18.39-.17,1.09,1-.57L560.91,317a29.59,29.59,0,0,0,15.18,0L593.45,327l.46.27-.08-.51-3-19A29.36,29.36,0,0,0,598,288.5ZM568.5,305A17.5,17.5,0,1,1,586,287.5,17.51,17.51,0,0,1,568.5,305Z" transform="translate(-492 -211)"/><circle class="cls-1" cx="76.5" cy="76.5" r="17.5"/></svg>